<?xml version="1.0" standalone="no"?>
<!DOCTYPE svg PUBLIC "-//W3C//DTD SVG 20010904//EN"
 "http://www.w3.org/TR/2001/REC-SVG-20010904/DTD/svg10.dtd">
<svg version="1.0" xmlns="http://www.w3.org/2000/svg"
 width="200.000000pt" height="200.000000pt" viewBox="0 0 200.000000 200.000000"
 preserveAspectRatio="xMidYMid meet">

<g transform="translate(0.000000,200.000000) scale(0.100000,-0.100000)"
fill="#000000" stroke="none">
<path d="M1424 1469 c-47 -49 -51 -50 -89 -43 -22 4 -60 7 -84 8 -37 0 -48 -4
-72 -32 -22 -24 -29 -42 -29 -72 0 -45 -17 -55 -22 -13 -4 36 -53 68 -126 84
-48 10 -67 9 -120 -4 -103 -27 -182 -92 -182 -149 0 -70 76 -89 137 -34 53 47
75 56 130 56 48 -1 104 -22 86 -33 -5 -3 -15 -2 -23 4 -21 12 -97 11 -123 -2
-12 -7 -39 -28 -61 -47 -34 -30 -43 -34 -81 -29 -42 4 -44 3 -59 -32 -59 -138
-53 -330 16 -464 28 -56 97 -127 143 -148 52 -24 129 -24 182 0 54 25 113 86
142 150 13 27 28 48 32 45 17 -10 48 37 59 92 26 123 9 280 -52 492 -11 37
-10 44 4 59 15 14 23 15 56 5 84 -25 131 -8 195 70 21 25 37 47 37 50 0 3 -11
13 -24 21 -22 15 -25 14 -72 -34z m-281 -333 c-4 -5 -12 -1 -19 9 -7 10 -11
22 -8 27 3 5 12 1 19 -9 7 -10 11 -22 8 -27z m-59 -77 c5 -5 7 -11 4 -15 -9
-8 -148 74 -148 87 0 10 123 -51 144 -72z m-150 -52 c60 -12 111 -27 113 -33
2 -7 -21 -16 -58 -23 -33 -7 -67 -15 -75 -18 -8 -3 -14 0 -14 5 0 6 21 17 48
24 l47 14 -102 19 c-57 10 -103 22 -103 27 0 12 22 9 144 -15z m116 -145 c-45
-61 -79 -96 -85 -90 -4 4 7 25 25 48 l32 41 -58 -27 c-110 -49 -126 -55 -137
-51 -10 4 83 51 203 104 36 15 43 6 20 -25z m80 -29 c-1 -19 -118 -214 -124
-205 -7 11 102 212 115 212 5 0 9 -3 9 -7z"/>
</g>
</svg>
