<?xml version="1.0" encoding="utf-8"?>
<!-- Svg Vector Icons : http://www.onlinewebfonts.com/icon -->
<!DOCTYPE svg PUBLIC "-//W3C//DTD SVG 1.1//EN" "http://www.w3.org/Graphics/SVG/1.1/DTD/svg11.dtd">
<svg version="1.1" xmlns="http://www.w3.org/2000/svg" xmlns:xlink="http://www.w3.org/1999/xlink" x="0px" y="0px" viewBox="0 0 1000 1000" enable-background="new 0 0 1000 1000" xml:space="preserve">
<metadata> Svg Vector Icons : http://www.onlinewebfonts.com/icon </metadata>
<g><g transform="translate(0.000000,511.000000) scale(0.100000,-0.100000)"><path d="M6942,2228.6c-99.7-70.4-97.7-78.2,162.2-797.4c134.9-369.4,244.3-678.2,244.3-688c0-7.8-74.3,56.7-164.2,144.6c-177.9,174-220.8,191.5-312.7,119.2c-39.1-29.3-50.8-56.7-50.8-111.4c0-62.5,17.6-89.9,162.2-234.5l160.3-162.2l-215,78.2c-117.3,41-422.1,152.4-674.3,244.3c-252.1,91.9-480.8,168.1-508.1,168.1c-111.4,0-181.8-172-105.5-256C5656,715.9,6029.2,569.3,6469,411c441.7-160.3,801.3-295.1,801.3-301S6910.7-30.7,6469-191c-439.7-158.3-813-304.9-828.7-322.5c-76.2-86-5.9-256,105.5-256c27.4,0,254.1,76.2,508.1,168.1c252.1,91.9,557,203.3,674.3,246.3l215,76.2L6983-441.1c-144.6-144.6-162.2-172-162.2-234.5c0-54.7,11.7-82.1,50.8-111.4c91.9-72.3,134.9-54.7,312.7,119.2c89.9,87.9,164.2,152.4,164.2,144.6c0-9.8-109.4-318.6-244.3-687.9c-259.9-719.2-261.9-727.1-162.2-797.4c23.5-17.6,62.6-31.3,87.9-31.3c101.6,0,129,60.6,428,885.3c162.2,447.6,295.1,785.7,302.9,772c7.8-13.7,138.8-373.3,293.1-797.4c179.8-494.5,295.1-787.6,324.5-815c80.1-82.1,222.8-37.1,250.2,78.2c7.8,29.3-72.3,277.5-232.6,715.3c-136.8,369.4-246.3,676.2-246.3,682.1s74.3-60.6,164.2-148.5c129-127,175.9-160.3,218.9-160.3c64.5,1.9,109.5,29.3,140.7,91.9c41.1,76.2,25.4,105.5-132.9,267.8c-86,87.9-156.3,166.1-156.3,172s297.1-97.7,660.6-230.6C9406.5-660,9725-767.5,9752.4-767.5c138.8,0,199.4,181.8,89.9,267.8c-25.4,17.6-396.7,160.3-828.7,316.6C8581.7-26.8,8228,104.1,8228,110s353.7,136.8,785.7,293.2s803.3,299,828.7,316.6c58.6,46.9,74.3,121.2,39.1,189.6c-31.3,58.6-66.4,80.1-132.9,80.1c-23.5,0-330.3-105.5-684-234.5c-355.7-129-654.7-234.5-666.4-234.5c-11.7,0,50.8,74.3,138.8,164.2C8699,850.7,8714.6,880,8673.6,956.3c-31.3,62.5-76.2,89.9-140.7,91.9c-43,0-89.9-33.2-218.9-160.3c-89.9-87.9-164.2-154.4-164.2-148.5c0,5.9,109.4,312.7,246.3,682.1c160.3,439.7,240.4,686,232.6,715.3c-27.4,115.3-170,160.3-250.2,80.1c-29.3-29.3-144.6-322.5-324.5-816.9c-154.4-424.1-285.3-783.7-293.1-797.4c-7.8-13.7-140.7,324.4-302.9,772c-299,824.8-326.4,885.3-428,885.3C7004.5,2259.9,6965.4,2246.2,6942,2228.6z"/><path d="M148.4,205.8C82,127.6,83.9,80.7,154.3,10.3l56.7-56.7h3043h3043l56.7,56.7c72.3,72.3,72.3,127,0,199.3l-56.7,56.7H3248.1H199.2L148.4,205.8z"/></g></g>
</svg>