<?xml version="1.0" standalone="no"?>
<!DOCTYPE svg PUBLIC "-//W3C//DTD SVG 20010904//EN"
 "http://www.w3.org/TR/2001/REC-SVG-20010904/DTD/svg10.dtd">
<svg version="1.0" xmlns="http://www.w3.org/2000/svg"
 width="512.000000pt" height="512.000000pt" viewBox="0 0 512.000000 512.000000"
 preserveAspectRatio="xMidYMid meet">

<g transform="translate(0.000000,512.000000) scale(0.100000,-0.100000)"
fill="#000000" stroke="none">
<path d="M243 5108 c-34 -16 -48 -61 -32 -100 19 -47 136 -239 209 -343 129
-185 348 -442 523 -614 l65 -64 -19 -56 c-44 -126 -62 -249 -62 -411 0 -237
39 -396 150 -611 93 -181 242 -356 418 -492 102 -79 217 -189 262 -250 l35
-47 -31 -36 c-34 -38 -81 -126 -101 -189 -7 -22 -26 -66 -42 -99 -67 -134 -86
-304 -49 -449 23 -88 49 -143 101 -212 31 -42 38 -61 44 -120 10 -99 24 -150
63 -233 61 -129 183 -226 305 -241 l53 -6 0 -237 c0 -230 1 -239 22 -259 37
-38 123 -17 123 29 0 10 7 13 23 8 12 -3 68 -6 125 -6 99 0 103 -1 114 -24 25
-57 115 -55 136 2 6 15 13 110 16 212 3 102 8 195 12 208 4 13 17 24 33 27
118 24 231 79 325 158 99 82 186 244 186 344 0 43 4 51 60 109 164 170 195
444 73 637 -14 23 -32 73 -39 111 -16 83 -62 184 -109 242 l-35 42 73 68 c39
38 106 91 147 118 264 172 429 353 554 604 137 275 172 601 97 894 l-19 73 61
54 c122 106 454 448 541 556 132 165 259 360 259 397 0 32 -40 78 -68 78 -28
0 -62 -22 -80 -52 l-18 -31 -96 7 c-53 3 -126 6 -163 6 -59 0 -68 2 -68 18 0
46 -84 80 -121 50 -9 -7 -44 -60 -79 -118 -106 -176 -301 -456 -377 -540 -2
-2 -27 22 -56 55 -157 183 -362 337 -577 431 -269 118 -576 171 -840 145 -242
-25 -419 -75 -625 -177 -162 -80 -291 -172 -410 -291 l-92 -92 -61 87 c-83
121 -193 304 -270 452 -78 150 -94 170 -138 170 -35 0 -74 -31 -74 -58 0 -21
-331 -13 -338 8 -9 25 -60 70 -79 69 -10 0 -28 -5 -40 -11z m2518 -713 c103
-18 200 -50 299 -100 102 -51 153 -87 234 -164 117 -112 200 -256 243 -420 21
-78 25 -120 26 -226 1 -197 -44 -356 -144 -510 -69 -106 -138 -176 -303 -303
-83 -65 -188 -153 -234 -198 -78 -75 -86 -80 -130 -83 -138 -6 -279 -105 -339
-238 -14 -32 -28 -60 -29 -62 -2 -2 -30 20 -61 50 -51 48 -59 61 -75 122 -10
38 -30 91 -45 119 -33 61 -143 180 -268 291 -222 197 -286 272 -355 420 -61
129 -84 237 -84 392 0 100 5 150 22 219 88 353 357 606 732 686 110 24 389 27
511 5z m134 -2184 c46 -21 101 -79 122 -130 21 -49 12 -125 -22 -190 -24 -46
-26 -55 -15 -82 15 -35 37 -49 78 -49 32 0 60 26 89 84 24 47 30 40 42 -49 7
-48 19 -81 38 -109 38 -54 50 -83 62 -153 18 -100 -16 -229 -82 -308 l-25 -30
-29 26 c-57 54 -111 73 -201 74 -79 0 -85 -1 -108 -28 -31 -36 -31 -77 0 -106
20 -19 37 -23 94 -24 62 -2 74 -5 109 -33 33 -27 38 -37 41 -79 3 -39 -4 -62
-32 -121 -45 -91 -123 -164 -226 -213 -63 -30 -85 -35 -146 -36 -84 0 -117 18
-147 78 -17 34 -18 45 -6 128 21 159 -4 379 -57 481 -12 24 -13 42 -5 106 6
42 16 160 21 262 6 102 17 215 25 252 27 130 92 224 176 254 52 19 157 17 204
-5z m-771 -132 c55 -15 128 -88 159 -157 50 -110 55 -204 26 -473 -12 -106
-12 -106 15 -161 33 -69 55 -185 56 -298 0 -76 -3 -90 -30 -136 -36 -64 -80
-109 -133 -135 -56 -29 -151 -23 -201 12 -85 60 -135 163 -143 295 -5 68 -2
88 16 129 12 27 29 58 39 68 19 22 104 67 125 67 25 0 60 48 60 82 0 45 -44
82 -90 75 -69 -12 -152 -59 -208 -118 l-54 -59 -22 58 c-31 79 -38 227 -14
308 9 33 29 82 44 109 15 28 33 70 40 95 36 122 113 211 211 241 36 11 60 10
104 -2z"/>
<path d="M755 1905 c-41 -40 -30 -103 22 -123 42 -17 520 -142 540 -142 44 1
80 61 63 105 -6 15 -24 32 -43 40 -36 15 -525 145 -545 145 -7 0 -24 -11 -37
-25z"/>
<path d="M3905 1765 c-219 -45 -262 -56 -277 -75 -40 -50 -8 -120 55 -120 17
0 147 23 287 51 279 56 300 64 300 124 0 40 -36 75 -76 74 -16 -1 -146 -25
-289 -54z"/>
<path d="M744 1456 c-12 -9 -25 -27 -28 -41 -8 -30 16 -81 41 -89 19 -5 248
-15 449 -19 109 -2 124 0 143 17 31 28 26 92 -9 117 -22 16 -59 19 -300 24
-240 6 -278 5 -296 -9z"/>
<path d="M3623 1358 c-30 -32 -30 -78 0 -106 22 -21 37 -23 297 -32 304 -11
317 -9 334 48 7 27 6 38 -11 59 -10 15 -30 30 -44 34 -14 3 -144 9 -289 13
l-265 8 -22 -24z"/>
<path d="M1060 1074 c-118 -24 -239 -49 -268 -55 -29 -6 -61 -20 -72 -32 -37
-39 -17 -108 33 -121 35 -9 566 100 589 120 29 27 24 88 -8 113 -15 12 -34 21
-43 20 -9 -1 -113 -21 -231 -45z"/>
<path d="M3633 1040 c-44 -18 -59 -93 -24 -124 19 -17 521 -156 566 -156 56 0
88 87 47 128 -14 14 -328 103 -552 157 -8 2 -25 0 -37 -5z"/>
</g>
</svg>
