<?xml version="1.0" standalone="no"?>
<!DOCTYPE svg PUBLIC "-//W3C//DTD SVG 20010904//EN"
 "http://www.w3.org/TR/2001/REC-SVG-20010904/DTD/svg10.dtd">
<svg version="1.0" xmlns="http://www.w3.org/2000/svg"
 width="640.000000pt" height="822.000000pt" viewBox="0 0 640.000000 822.000000"
 preserveAspectRatio="xMidYMid meet">

<g transform="translate(0.000000,822.000000) scale(0.100000,-0.100000)"
fill="#000000" stroke="none">
<path d="M6380 4110 c0 -2733 3 -4110 10 -4110 7 0 10 1377 10 4110 0 2733 -3
4110 -10 4110 -7 0 -10 -1377 -10 -4110z"/>
<path d="M4598 7073 c12 -2 32 -2 45 0 12 2 2 4 -23 4 -25 0 -35 -2 -22 -4z"/>
<path d="M4741 7008 c36 -40 166 -190 289 -333 122 -143 238 -276 256 -295 40
-42 42 -56 10 -64 -42 -10 -172 -104 -221 -159 -95 -105 -145 -201 -254 -491
-125 -330 -170 -530 -178 -781 -10 -320 17 -458 227 -1196 72 -250 130 -460
130 -466 0 -7 -29 0 -72 18 -149 61 -294 111 -408 139 -271 68 -578 124 -795
144 -420 40 -656 73 -678 95 -11 11 45 9 73 -3 19 -7 175 -26 218 -26 24 0 31
4 26 13 -4 6 1 4 12 -5 13 -11 31 -16 53 -13 18 2 41 1 50 -4 20 -10 293 -23
287 -13 -2 4 7 13 21 19 21 10 23 10 13 -3 -10 -11 -8 -14 9 -14 14 0 20 4 15
12 -5 7 -2 9 9 5 29 -11 76 23 147 106 38 45 128 149 200 232 118 137 152 183
117 159 -7 -5 -5 -1 5 8 25 23 48 80 48 120 0 74 -56 310 -160 674 -116 408
-165 646 -214 1044 -14 113 -30 237 -35 275 l-8 70 -2 -66 c-2 -134 55 -610
99 -829 11 -52 49 -205 85 -340 173 -648 216 -841 195 -894 -4 -12 -20 -38
-34 -59 -15 -21 -21 -35 -14 -32 7 4 2 -3 -12 -16 -23 -22 -62 -65 -269 -297
-35 -39 -73 -74 -85 -78 -12 -4 -26 -11 -33 -16 -25 -20 -350 -28 -513 -13
-157 15 -318 43 -338 58 -8 6 -29 41 -48 79 -25 50 -40 68 -54 68 -19 0 -18
-5 15 -70 19 -39 33 -70 30 -70 -40 0 -842 250 -1165 363 -353 124 -359 127
-389 185 -20 38 -62 80 -118 120 -24 17 -46 22 -90 22 -78 0 -134 -17 -284
-83 -87 -39 -148 -59 -200 -67 -137 -20 -181 -32 -246 -66 -117 -61 -144 -104
-140 -224 1 -41 -2 -86 -7 -99 -6 -18 -5 -22 5 -16 11 6 12 5 2 -6 -30 -31 -6
-117 60 -212 54 -77 326 -322 393 -353 61 -29 155 -40 208 -26 36 10 45 8 165
-52 218 -109 665 -280 894 -342 72 -20 190 -53 261 -75 145 -43 281 -74 531
-119 205 -37 297 -58 520 -117 651 -171 656 -173 708 -221 26 -24 27 -30 27
-116 0 -60 -8 -121 -21 -176 -17 -66 -22 -118 -23 -233 l-1 -149 -55 -22 c-40
-16 -56 -28 -58 -44 l-3 -22 52 21 c29 11 57 23 61 25 4 3 8 -1 8 -8 0 -31 22
-89 44 -115 12 -15 37 -75 55 -133 42 -135 109 -270 171 -347 28 -34 48 -68
45 -75 -2 -7 -18 -107 -34 -223 -16 -115 -32 -228 -35 -250 -3 -22 -13 -94
-21 -160 -8 -66 -17 -138 -20 -160 l-5 -40 24 42 c19 33 28 73 40 171 19 154
19 155 4 146 -7 -4 -6 1 3 12 11 12 21 56 28 119 7 55 19 138 27 185 7 47 14
100 14 118 0 36 7 39 36 17 17 -14 94 -52 112 -56 4 -1 29 -10 55 -20 27 -11
91 -25 143 -31 266 -34 515 85 700 332 47 64 139 255 153 320 5 25 19 86 31
136 35 151 44 273 31 401 -19 177 -28 181 -23 8 7 -263 -19 -400 -129 -660
-65 -154 -117 -230 -225 -326 -79 -69 -154 -114 -245 -146 -237 -82 -560 2
-698 181 -55 71 -123 212 -156 321 -15 50 -40 116 -56 148 -16 32 -29 70 -29
85 0 24 8 30 81 60 45 18 82 32 83 30 2 -2 10 -55 19 -120 39 -287 161 -513
317 -586 45 -22 71 -26 145 -28 50 0 120 -4 157 -9 58 -7 72 -5 112 15 57 27
186 152 213 205 24 47 49 146 59 230 3 33 15 77 25 97 13 26 19 59 19 109 0
39 5 100 12 134 21 117 -10 515 -68 855 -34 203 -37 187 44 194 37 4 93 13
124 21 32 8 66 15 75 15 35 0 89 20 111 40 25 24 29 62 8 80 -8 6 -120 58
-248 114 l-232 102 -19 65 c-26 93 -207 689 -218 719 -19 54 -89 352 -108 460
-37 214 -45 304 -45 520 -1 236 7 292 62 425 16 39 48 131 71 205 72 232 102
313 142 390 126 243 301 350 597 367 l114 6 -7 36 c-4 20 -9 40 -12 45 -9 13
-229 -1 -301 -19 l-63 -17 -18 24 c-25 31 -103 122 -533 618 -56 65 -81 86
-103 88 -28 4 -27 1 36 -70z m979 -663 c0 -12 -14 -15 -62 -15 -146 -1 -305
-42 -406 -106 -143 -91 -242 -228 -311 -431 -55 -163 -188 -597 -202 -658 -18
-77 -18 -392 0 -535 39 -325 79 -488 281 -1135 53 -172 84 -285 78 -291 -10
-9 -48 15 -48 31 0 8 -11 49 -24 92 -13 43 -33 110 -45 148 -11 39 -47 158
-80 265 -191 628 -231 823 -231 1119 1 318 49 522 227 961 87 216 116 264 212
360 143 142 300 207 504 209 89 1 107 -2 107 -14z m-4439 -2013 c61 -40 74
-57 97 -132 12 -36 21 -57 21 -47 1 22 9 21 46 -1 31 -19 108 -52 135 -57 8
-2 36 -13 63 -25 26 -11 52 -18 59 -14 6 4 8 3 5 -3 -8 -12 20 -26 34 -17 5 3
9 0 9 -7 0 -6 8 -9 20 -6 11 3 18 1 14 -4 -3 -5 4 -9 15 -9 11 0 22 -4 25 -9
6 -10 64 -25 85 -22 7 1 10 -2 7 -8 -8 -12 49 -25 65 -15 8 5 9 3 4 -6 -6 -10
-4 -12 9 -7 10 4 15 3 11 -3 -3 -6 2 -10 13 -10 10 0 22 -3 26 -7 4 -5 11 -8
14 -8 4 -1 18 -7 31 -14 12 -7 32 -11 42 -8 10 3 19 1 19 -4 0 -4 26 -16 58
-24 31 -9 64 -19 72 -21 8 -3 15 -4 15 -3 0 1 20 -8 45 -21 40 -20 43 -21 30
-4 -14 18 -14 18 8 0 12 -11 37 -20 54 -21 18 -2 40 -5 48 -8 20 -8 131 -39
330 -93 91 -25 172 -52 180 -60 13 -14 10 -15 -35 -9 -117 16 -398 83 -890
211 -198 52 -407 104 -465 116 -115 23 -136 33 -120 54 13 14 -3 89 -20 99 -6
4 -8 10 -5 15 3 5 1 11 -5 15 -5 3 -10 -3 -10 -14 0 -12 5 -21 10 -21 6 0 10
-6 9 -12 -4 -31 2 -59 11 -53 6 3 10 1 10 -4 0 -6 -5 -11 -11 -11 -7 0 -9 -10
-7 -25 3 -14 1 -25 -3 -25 -5 0 -11 11 -15 25 -3 14 -11 25 -16 25 -6 0 -7
-11 -4 -25 4 -14 2 -25 -4 -25 -5 0 -10 5 -10 11 0 6 -7 3 -16 -5 -8 -9 -22
-16 -30 -16 -54 0 -114 -76 -114 -142 1 -46 31 -109 79 -161 31 -33 38 -46 27
-50 -8 -3 -38 -36 -66 -74 -28 -37 -83 -101 -122 -141 -58 -60 -73 -71 -85
-60 -10 8 -17 8 -21 1 -9 -13 -171 -32 -178 -21 -3 4 -12 8 -21 8 -28 0 -137
53 -168 82 -32 29 -51 37 -39 16 12 -22 -91 86 -108 112 -9 14 -44 56 -77 93
-34 38 -59 73 -56 78 4 5 1 9 -4 9 -6 0 -11 6 -11 14 0 8 -7 16 -15 20 -8 3
-15 13 -15 21 0 9 -3 14 -7 12 -5 -3 -8 57 -8 132 0 156 6 172 77 217 68 43
157 68 283 79 43 4 139 37 227 80 170 81 264 94 339 47z m672 -606 c24 -22 55
-34 102 -40 34 -3 65 -17 65 -28 0 -7 -14 -8 -37 -4 -21 4 -78 13 -128 22 -49
8 -92 20 -96 26 -12 19 1 37 29 41 15 2 30 5 33 6 3 0 18 -10 32 -23z m-489
-169 c45 -24 124 -56 176 -70 97 -27 308 -60 460 -72 303 -23 1054 -138 1505
-230 72 -15 139 -29 150 -31 64 -12 411 -101 527 -135 76 -22 217 -69 315
-104 183 -65 324 -104 449 -125 l70 -11 28 -182 c30 -201 55 -406 56 -452 0
-27 -3 -24 -25 23 -14 30 -25 65 -25 78 0 51 -58 122 -130 159 -26 14 -30 21
-30 58 0 58 -20 82 -98 119 -58 27 -83 33 -181 40 -130 8 -182 0 -218 -34 -56
-52 -91 -160 -68 -214 12 -29 11 -35 -12 -69 -71 -104 -127 -279 -144 -448 -6
-62 -13 -117 -14 -123 -2 -6 -39 -24 -83 -41 l-79 -30 -7 122 c-7 107 -5 133
15 211 17 68 22 124 24 239 1 83 0 161 -3 173 -4 22 -6 21 -22 -15 -11 -21
-19 -30 -19 -20 -1 11 -9 17 -23 17 -16 0 -19 3 -10 9 15 9 -88 52 -132 55
-13 0 -22 4 -20 7 4 7 -39 17 -103 25 -17 2 -43 8 -58 14 -14 5 -29 9 -33 8
-4 -1 -14 1 -22 5 -61 23 -235 67 -248 62 -9 -3 -13 -2 -8 2 12 13 -204 57
-281 58 -28 0 -49 4 -45 9 3 5 -2 6 -12 3 -10 -4 -15 -3 -11 3 3 6 -3 10 -14
10 -10 0 -48 9 -82 20 -60 18 -64 18 -83 2 -11 -9 -16 -12 -13 -6 11 19 -15
32 -69 37 -28 3 -68 10 -90 15 -135 36 -166 43 -171 38 -3 -3 -17 1 -32 8 -15
8 -47 17 -71 20 -25 3 -63 10 -85 15 -22 6 -51 8 -65 5 -20 -4 -22 -3 -10 5
12 8 8 11 -20 12 -19 1 -41 2 -47 2 -7 -1 -13 3 -13 9 0 5 -4 6 -10 3 -5 -3
-10 -1 -10 6 0 6 -8 9 -19 6 -11 -3 -22 1 -25 8 -3 8 -20 18 -38 24 -18 5 -73
23 -121 40 -49 17 -100 31 -113 31 -22 0 -194 61 -220 78 -6 4 -40 26 -74 50
-35 24 -76 50 -92 58 -35 18 -207 56 -219 48 -5 -3 -8 0 -7 6 2 6 -14 17 -35
24 -56 20 -68 33 -56 62 14 38 11 48 -8 33 -16 -13 -17 -12 -4 4 8 9 16 15 19
13 2 -3 17 10 32 29 15 19 30 32 34 28 3 -3 6 -1 6 5 0 6 12 24 26 41 14 17
22 31 17 31 -4 0 0 5 10 11 10 6 29 35 42 65 13 30 27 54 31 54 4 0 44 -20 88
-43z m2059 -104 c4 -7 18 -18 30 -25 19 -10 20 -9 10 4 -10 12 -10 14 5 13 9
0 23 -4 30 -9 7 -4 19 -2 27 4 8 7 15 9 15 4 0 -4 21 12 47 36 44 41 35 28
-24 -38 -19 -20 -16 -23 13 -12 19 7 31 7 40 -1 11 -9 14 -8 14 2 0 10 3 10
12 1 7 -7 35 -12 63 -12 27 -1 68 -8 90 -16 22 -9 69 -22 105 -30 36 -8 74
-18 85 -23 64 -27 86 -35 140 -48 33 -8 70 -14 83 -14 13 1 36 -6 52 -14 16
-8 43 -15 60 -15 20 0 29 -4 24 -11 -4 -6 -21 -9 -43 -5 -135 20 -256 37 -316
42 -43 4 -73 12 -78 20 -4 8 -13 14 -20 14 -7 0 -6 -4 3 -10 25 -16 -28 -12
-111 9 -41 10 -96 22 -124 26 -27 3 -70 13 -94 21 -49 16 -86 10 -77 -12 4 -9
2 -12 -5 -8 -6 3 -41 -22 -78 -57 l-66 -64 65 70 c36 38 68 71 73 73 13 7 7
22 -9 22 -9 0 -12 5 -8 13 6 9 5 9 -7 0 -19 -16 -57 10 -42 29 7 9 4 18 -8 30
-9 9 -20 14 -23 12 -3 -2 -4 -1 -1 3 3 3 -5 18 -17 32 -13 15 -6 11 17 -9 22
-19 43 -41 48 -47z m182 -183 l80 -85 -86 80 c-47 44 -89 86 -92 93 -12 24 17
-2 98 -88z m-2964 73 c13 -17 13 -17 -6 -3 -11 8 -22 16 -24 17 -2 2 0 3 6 3
6 0 17 -8 24 -17z m390 -76 c-6 -8 -7 -18 -3 -22 4 -5 1 -5 -6 -1 -10 6 -10
11 -1 22 6 8 14 14 16 14 3 0 0 -6 -6 -13z m3986 -141 c3 -3 69 -242 78 -284
7 -32 6 -33 -21 -30 -26 3 -29 8 -40 69 -10 56 -32 144 -61 242 -4 16 -1 18
19 12 12 -4 24 -8 25 -9z m81 -354 c24 -16 82 -414 102 -711 6 -84 10 -236 9
-337 -1 -163 -4 -189 -22 -222 -19 -35 -57 -138 -57 -151 1 -3 7 5 15 19 19
34 18 19 -5 -71 -21 -87 -40 -135 -64 -164 -17 -20 -17 -20 -11 5 4 17 -4 9
-24 -22 -17 -27 -31 -52 -31 -57 0 -12 -65 -63 -107 -85 -32 -16 -90 -21 -130
-10 -21 6 -19 9 25 50 29 27 57 43 73 44 26 0 56 28 115 105 17 22 35 51 39
65 4 14 16 36 26 49 11 13 19 31 19 40 0 14 -2 14 -11 1 -8 -11 -9 -3 -6 33 3
32 12 57 28 73 20 22 24 36 25 97 0 40 7 113 15 162 24 143 17 427 -15 670
-33 247 -48 403 -41 416 7 11 16 11 33 1z m-523 -182 c47 -24 49 -24 41 -4 -5
14 0 15 41 10 27 -4 65 -14 85 -23 l37 -16 -42 -21 c-22 -11 -43 -27 -45 -34
-3 -9 9 -7 38 8 52 26 89 20 118 -20 33 -45 29 -57 -26 -64 -27 -3 -57 -13
-68 -21 -21 -16 -24 -17 61 0 28 6 123 -40 162 -77 30 -29 61 -93 50 -104 -2
-3 -21 4 -42 16 -52 29 -69 19 -20 -12 22 -14 48 -34 57 -44 21 -24 58 -109
58 -135 0 -17 -3 -17 -36 6 -44 30 -69 33 -34 4 77 -63 73 -55 67 -128 -4 -50
-1 -80 14 -125 18 -53 19 -67 9 -130 -6 -39 -14 -100 -17 -134 -3 -44 -12 -74
-29 -99 -28 -42 -40 -94 -26 -120 11 -19 8 -25 -63 -143 -22 -37 -95 -114
-101 -107 -3 2 13 38 35 78 43 80 65 173 55 228 -10 53 -46 126 -108 221 -31
46 -56 94 -56 107 0 12 -12 35 -26 52 -30 36 -31 48 -11 121 12 42 26 64 64
100 26 25 59 53 73 62 24 17 24 17 3 17 -43 2 -163 -124 -163 -171 0 -10 -4
-18 -10 -18 -5 0 -10 8 -10 18 0 9 -11 40 -25 67 -20 41 -24 66 -25 132 l0 82
45 38 c25 20 45 41 45 45 0 12 -32 -3 -69 -33 l-35 -28 -41 72 c-39 68 -43 72
-82 78 -88 11 -101 58 -39 141 21 29 28 44 16 35 -26 -18 -53 -54 -73 -98 -9
-19 -28 -41 -42 -47 -23 -11 -26 -9 -36 15 -7 20 -7 40 2 73 35 127 126 180
224 130z m-788 -156 c-3 -3 -12 -4 -19 -1 -8 3 -5 6 6 6 11 1 17 -2 13 -5z
m712 -124 c30 0 56 -30 91 -104 25 -54 30 -78 30 -137 0 -60 5 -84 35 -149 19
-43 35 -84 35 -91 0 -8 15 -37 33 -65 19 -28 37 -65 40 -82 3 -17 21 -54 40
-84 19 -29 55 -93 82 -141 53 -98 54 -116 15 -220 -58 -154 -176 -257 -296
-257 -147 0 -295 166 -364 410 -18 66 -49 247 -50 291 0 11 29 29 90 54 94 40
109 50 92 67 -6 6 -36 -1 -87 -21 -42 -17 -81 -31 -87 -31 -21 0 13 222 54
350 47 146 86 212 142 235 27 12 34 11 57 -6 15 -10 37 -19 48 -19z m617 -457
c-11 -11 -19 6 -11 24 8 17 8 17 12 0 3 -10 2 -21 -1 -24z"/>
<path d="M4615 2407 c-5 -18 -3 -33 4 -40 16 -16 20 -6 12 33 l-8 35 -8 -28z"/>
<path d="M5030 2070 c-20 -12 -5 -24 16 -12 9 5 12 12 7 15 -5 3 -15 2 -23 -3z"/>
</g>
</svg>
