<?xml version="1.0" standalone="no"?>
<!DOCTYPE svg PUBLIC "-//W3C//DTD SVG 20010904//EN"
 "http://www.w3.org/TR/2001/REC-SVG-20010904/DTD/svg10.dtd">
<svg version="1.0" xmlns="http://www.w3.org/2000/svg"
 width="852.000000pt" height="980.000000pt" viewBox="0 0 852.000000 980.000000"
 preserveAspectRatio="xMidYMid meet">

<g transform="translate(0.000000,980.000000) scale(0.100000,-0.100000)"
fill="#000000" stroke="none">
<path d="M3430 9793 c-131 -9 -247 -27 -350 -53 -530 -135 -1019 -415 -1438
-824 -373 -363 -628 -735 -880 -1283 -378 -824 -615 -1663 -712 -2523 -55
-496 -57 -1053 -4 -1530 130 -1180 629 -2277 1328 -2919 179 -164 331 -267
586 -395 401 -202 646 -261 1090 -260 263 0 388 13 615 60 481 102 989 352
1440 710 147 117 443 414 538 542 181 241 349 582 407 824 59 246 48 624 -25
837 -27 81 -30 101 -15 101 5 0 60 -34 122 -76 459 -310 689 -628 824 -1141
50 -189 62 -306 70 -671 l7 -322 193 0 192 0 9 107 c29 376 -28 855 -142 1197
-192 574 -584 1002 -1210 1321 -357 182 -719 309 -1042 366 -154 27 -392 29
-508 5 -269 -57 -685 -310 -762 -464 -29 -59 -25 -227 9 -314 53 -141 150
-262 251 -315 48 -26 61 -28 162 -28 95 1 130 6 260 40 250 65 404 53 513 -40
22 -20 53 -61 69 -93 26 -53 28 -65 27 -177 0 -111 -3 -129 -38 -235 -21 -63
-58 -154 -83 -202 -79 -154 -217 -278 -310 -278 -118 0 -235 158 -319 430 -50
160 -65 184 -138 220 -71 36 -118 38 -176 7 -88 -46 -108 -140 -75 -342 19
-114 19 -177 0 -273 -38 -189 -175 -367 -365 -473 -258 -145 -597 -129 -837
40 -168 119 -289 294 -323 469 -21 107 -7 168 65 282 46 71 48 132 8 210 -37
72 -70 95 -136 95 -68 0 -140 -36 -232 -115 -38 -33 -92 -71 -119 -85 -234
-118 -538 189 -612 618 -21 121 -15 308 14 388 31 87 50 119 111 182 97 102
244 165 443 191 121 16 160 34 201 93 56 82 57 181 2 264 -46 70 -124 83 -315
54 -52 -8 -140 -15 -195 -15 -190 0 -300 45 -431 175 -142 140 -178 248 -178
525 0 212 19 302 93 455 79 161 213 290 357 345 132 49 326 45 494 -11 109
-35 232 -48 299 -29 116 31 163 169 100 291 -28 57 -59 75 -146 88 -127 19
-227 75 -341 193 -91 94 -169 219 -214 345 -44 125 -43 565 2 708 79 251 265
468 448 522 73 21 201 20 278 -2 87 -25 138 -59 256 -172 59 -56 125 -111 147
-123 76 -38 167 -17 229 55 62 70 67 119 22 214 -17 35 -50 85 -74 111 -54 61
-104 155 -152 290 -35 96 -38 114 -38 215 -1 91 3 122 23 178 68 199 265 379
499 457 244 81 509 35 651 -115 87 -92 123 -204 141 -432 24 -306 41 -355 142
-397 51 -22 77 -20 155 10 139 52 263 20 392 -101 160 -152 257 -361 297 -645
15 -103 15 -132 5 -205 -17 -111 -67 -255 -121 -347 -44 -74 -200 -239 -252
-267 -26 -13 -30 -11 -111 52 -114 89 -317 286 -503 488 -84 92 -169 177 -188
188 -41 25 -94 36 -131 27 -35 -9 -102 -72 -126 -117 -60 -119 6 -233 325
-558 409 -416 662 -596 1634 -1162 843 -492 1051 -634 1335 -909 687 -666
1010 -1466 1131 -2805 14 -152 46 -592 46 -630 0 -13 30 -15 195 -15 l195 0 0
85 c0 200 -36 658 -76 980 -146 1156 -500 1966 -1145 2614 -278 279 -541 475
-1056 785 l-213 128 0 61 c0 34 9 114 20 177 53 304 77 795 60 1233 -12 323
-28 473 -75 691 -108 502 -290 919 -554 1271 -93 123 -287 324 -401 415 -333
264 -739 430 -1130 460 -124 9 -401 11 -510 3z"/>
<path d="M3305 6540 c-60 -60 -107 -111 -104 -113 2 -2 119 -95 259 -207 532
-425 750 -617 804 -711 15 -26 30 -71 33 -100 8 -66 25 -83 99 -97 211 -42
354 -273 304 -490 -28 -120 -111 -218 -248 -291 -104 -56 -221 -166 -502 -471
-114 -124 -268 -284 -341 -354 -74 -70 -138 -135 -142 -143 -12 -20 29 -63 59
-63 13 0 56 31 109 78 179 158 212 185 306 248 158 106 332 180 524 225 133
30 431 38 597 14 489 -68 1153 -347 1560 -656 284 -214 524 -470 688 -734 62
-99 172 -323 213 -435 93 -251 116 -442 133 -1122 l6 -248 130 0 130 0 -6 103
c-3 56 -8 181 -11 277 -20 630 -94 1103 -239 1545 -196 593 -489 1052 -925
1450 -272 247 -406 338 -1022 693 -1011 582 -1626 1035 -2209 1626 -46 47 -87
86 -90 86 -3 0 -55 -49 -115 -110z"/>
<path d="M2958 6150 c-75 -40 -119 -168 -83 -243 22 -47 125 -144 252 -237 56
-41 101 -76 99 -77 -1 -1 -97 -16 -212 -32 -297 -43 -342 -61 -385 -155 -25
-55 -24 -112 4 -166 38 -76 26 -75 521 -78 492 -3 766 7 814 32 65 34 109 116
99 188 -10 75 -77 138 -427 402 -321 243 -397 296 -488 343 -93 48 -136 53
-194 23z"/>
<path d="M4195 5100 c-36 -8 -201 -72 -570 -220 -430 -172 -530 -203 -743
-229 -107 -14 -174 -48 -214 -110 -32 -51 -38 -123 -14 -170 21 -40 88 -97
132 -111 70 -24 261 3 548 76 21 5 -15 -32 -134 -137 -184 -162 -218 -200
-227 -252 -8 -53 3 -83 49 -133 52 -56 85 -74 137 -74 125 0 242 89 641 490
333 334 414 408 532 488 134 90 180 161 158 244 -29 106 -85 149 -197 147 -37
-1 -81 -4 -98 -9z"/>
</g>
</svg>
