<?xml version="1.0" standalone="no"?>
<!DOCTYPE svg PUBLIC "-//W3C//DTD SVG 20010904//EN"
 "http://www.w3.org/TR/2001/REC-SVG-20010904/DTD/svg10.dtd">
<svg version="1.0" xmlns="http://www.w3.org/2000/svg"
 width="50.000000pt" height="50.000000pt" viewBox="0 0 50.000000 50.000000"
 preserveAspectRatio="xMidYMid meet">

<g transform="translate(0.000000,50.000000) scale(0.100000,-0.100000)"
fill="#000000" stroke="none">
<path d="M10 445 c-26 -32 13 -81 48 -59 22 14 27 41 12 59 -16 19 -44 19 -60
0z"/>
<path d="M120 420 c0 -19 7 -20 190 -20 183 0 190 1 190 20 0 19 -7 20 -190
20 -183 0 -190 -1 -190 -20z"/>
<path d="M10 275 c-26 -32 13 -81 48 -59 9 6 18 19 20 28 8 38 -43 61 -68 31z"/>
<path d="M120 250 c0 -19 7 -20 190 -20 183 0 190 1 190 20 0 19 -7 20 -190
20 -183 0 -190 -1 -190 -20z"/>
<path d="M10 105 c-26 -32 13 -81 48 -59 9 6 18 19 20 28 8 38 -43 61 -68 31z"/>
<path d="M120 80 c0 -19 7 -20 190 -20 183 0 190 1 190 20 0 19 -7 20 -190 20
-183 0 -190 -1 -190 -20z"/>
</g>
</svg>
