<?xml version="1.0" encoding="iso-8859-1"?>
<!-- Uploaded to: SVG Repo, www.svgrepo.com, Generator: SVG Repo Mixer Tools -->
<svg fill="#000000" height="800px" width="800px" version="1.1" id="Layer_1" xmlns="http://www.w3.org/2000/svg" xmlns:xlink="http://www.w3.org/1999/xlink" 
	 viewBox="0 0 501.333 501.333" xml:space="preserve">
<g>
	<g>
		<path d="M250.667,0C112,0,0,112,0,250.667s112,250.667,250.667,250.667s250.667-112,250.667-250.667S389.333,0,250.667,0z
			 M250.667,459.733c-115.2,0-209.067-93.867-209.067-209.067S135.467,41.6,250.667,41.6s209.067,93.867,209.067,209.067
			S365.867,459.733,250.667,459.733z"/>
	</g>
</g>
<g>
	<g>
		<path d="M368,134.4c-6.4-6.4-16-8.534-24.533-4.267l-136.533,67.2c-4.267,2.133-7.467,5.333-9.6,9.6l-67.2,135.467
			c-3.2,8.533-2.133,18.133,4.267,24.533c4.267,4.267,9.6,6.4,14.933,6.4c2.133,0,5.333-1.067,8.533-2.133L294.4,304
			c4.267-2.133,7.467-5.333,9.6-9.6l68.267-135.467C375.467,150.4,374.4,140.8,368,134.4z M268.8,268.8l-74.667,37.333
			l37.333-74.667l74.667-37.333L268.8,268.8z"/>
	</g>
</g>
</svg>